<svg width="40" height="30" viewBox="0 0 40 30" fill="none" xmlns="http://www.w3.org/2000/svg">
<rect width="40" height="30" fill="white"/>
<path fill-rule="evenodd" clip-rule="evenodd" d="M21.6428 6.96068H21.6837C23.5132 3.9721 22.5619 2.70758 23.9845 1.13572C25.2607 -0.207825 27.2248 1.28208 26.4315 2.36804C25.9983 2.87443 25.5534 3.00029 25.0968 2.62562C24.684 2.23339 24.6665 1.74749 25.0968 1.39916C24.816 1.55573 24.5871 1.79101 24.4384 2.07602C24.2896 2.36104 24.2275 2.68334 24.2596 3.00322C24.4394 4.55436 24.2816 6.12604 23.7971 7.6105L23.8674 7.6427C26.2091 5.26588 25.6236 3.85208 27.3448 2.69587C28.8874 1.70358 30.4212 3.59742 29.3938 4.45214C28.8698 4.85316 28.4161 4.87072 28.0619 4.39067C27.7692 3.91648 27.8541 3.44814 28.3546 3.21983C28.0502 3.30511 27.7773 3.47738 27.5693 3.71552C27.3613 3.95365 27.2273 4.24729 27.1838 4.56045C26.9982 6.07603 26.4923 7.53479 25.6997 8.83989L25.729 8.86623C28.5273 6.96946 28.2229 5.462 30.1197 4.64826C31.8262 3.9721 32.9678 6.12645 31.8057 6.77042C31.2203 7.04849 30.7637 6.97824 30.5002 6.44843C30.2924 5.92448 30.4768 5.48249 31.0066 5.34784C30.6892 5.37142 30.3857 5.48736 30.1334 5.68137C29.8812 5.87538 29.6912 6.13897 29.587 6.43965C29.0947 7.96365 28.2642 9.35659 27.1575 10.5142L27.1779 10.5435C30.3509 9.37262 30.3978 7.82125 32.4467 7.48171C34.2616 7.22705 34.8645 9.58923 33.5825 9.94341C32.9356 10.0693 32.5199 9.8995 32.3911 9.31993C32.3121 8.76378 32.596 8.3774 33.1434 8.36862C32.8296 8.31759 32.5078 8.35907 32.2172 8.48799C31.9266 8.61691 31.6799 8.82768 31.5071 9.09455C30.656 10.4815 29.4985 11.655 28.1234 12.5251V12.5251C31.5276 12.25 31.996 10.7689 34.0684 11.006C35.8832 11.2518 35.8246 13.6872 34.4957 13.6813C33.8371 13.6286 33.4859 13.3506 33.5181 12.7593C33.5503 12.168 33.9688 11.9075 34.4987 12.048C34.2109 11.9128 33.8898 11.8649 33.5751 11.9102C33.2604 11.9554 32.9658 12.0919 32.7278 12.3027C31.5376 13.4006 30.1132 14.2134 28.5625 14.6795C31.7472 15.06 32.5346 13.8013 34.4606 14.457C36.1817 15.0922 35.5934 17.4573 34.2967 17.1617C33.6849 16.9773 33.3922 16.6231 33.5444 16.0523C33.6966 15.4815 34.1708 15.3205 34.6567 15.5723C34.4056 15.3775 34.1029 15.2606 33.786 15.2362C33.4692 15.2117 33.1521 15.2807 32.8741 15.4347C31.5792 16.1857 30.1414 16.6573 28.6532 16.8192C31.5511 18.0574 32.6634 17.0973 34.3084 18.2828C35.772 19.3863 34.5338 21.4821 33.3746 20.8294C32.8273 20.4605 32.6546 20.0478 32.9736 19.5473C33.3102 19.0965 33.7815 19.0233 34.1737 19.4038C33.9904 19.1456 33.7358 18.9463 33.4411 18.8304C33.1463 18.7145 32.8242 18.6869 32.5141 18.7511C31.0397 19.1039 29.5073 19.1399 28.018 18.8565C30.4387 20.5747 31.712 19.9629 33.0117 21.4499C34.1825 22.8608 32.4907 24.6141 31.5159 23.7096C31.0681 23.2267 30.9949 22.7847 31.4193 22.3719C31.8525 22.0119 32.3297 22.05 32.6224 22.5095C32.5024 22.2176 32.3002 21.9668 32.0404 21.7875C31.7806 21.6082 31.4743 21.5083 31.1588 21.4997C29.5586 21.5029 27.9781 21.1468 26.534 20.4576C28.4981 22.9779 29.9441 22.6529 30.8281 24.4853C31.5862 26.1538 29.4904 27.3978 28.7791 26.2679C28.4864 25.6825 28.5215 25.2376 29.0425 24.9507C29.5548 24.7166 30.0026 24.8805 30.1636 25.4015C30.1244 25.0841 29.9923 24.7854 29.784 24.5428C29.5758 24.3001 29.3005 24.1244 28.9928 24.0375C27.4858 23.6258 26.0871 22.8895 24.8948 21.8802C26.1476 24.7868 27.6199 24.8541 28.0034 26.8563C28.3107 28.6652 25.9544 29.3326 25.5768 28.0593C25.4334 27.4154 25.5768 26.9968 26.1622 26.8534C26.7184 26.7597 27.1106 27.0319 27.134 27.5763C27.1802 27.2593 27.1321 26.9357 26.9957 26.6458C26.8594 26.3559 26.6408 26.1125 26.3671 25.9459C25.0086 25.161 23.8394 24.0867 22.9424 22.7993H22.8956C23.3112 25.8698 24.6782 26.344 24.5055 28.3433C24.3035 30.1668 21.8711 30.1668 21.8389 28.8379C21.8769 28.1764 22.1316 27.8193 22.7375 27.8369C23.2995 27.8983 23.601 28.2671 23.4722 28.7999C23.5993 28.5104 23.6393 28.1901 23.5873 27.8782C23.5353 27.5663 23.3936 27.2763 23.1795 27.0436C22.1244 25.9489 21.3151 24.6416 20.8056 23.2091H20.7354C20.2758 26.2767 21.4642 27.1168 20.7354 28.9901C20.6279 29.2851 20.4324 29.5399 20.1754 29.72C19.9183 29.9001 19.612 29.9968 19.2981 29.9971C18.5371 29.9971 17.8346 29.4585 18.0395 28.7179C18.2619 28.0944 18.6249 27.8252 19.184 28.0096C19.7021 28.2232 19.8894 28.6652 19.6172 29.1394C19.8217 28.8961 19.9506 28.5982 19.9881 28.2825C20.0255 27.9669 19.9699 27.6471 19.828 27.3627C19.1178 26.0236 18.6997 24.549 18.6015 23.0364H18.543C17.3545 25.9196 18.3205 27.0173 17.1701 28.6857C16.0871 30.1668 13.9737 28.9521 14.6148 27.7871C14.9748 27.2339 15.3846 27.0553 15.891 27.3685C16.3447 27.6993 16.4237 28.1706 16.049 28.5686C16.3046 28.3792 16.4994 28.1194 16.6096 27.821C16.7198 27.5226 16.7407 27.1985 16.6696 26.8885C16.2901 25.386 16.2412 23.8191 16.5262 22.2958L16.494 22.2783C14.5269 24.8014 15.1943 26.1274 13.6313 27.43C12.197 28.5745 10.4817 26.8446 11.4037 25.8874C11.8984 25.4513 12.3433 25.3869 12.7473 25.8201C13.0985 26.2621 13.04 26.7363 12.5833 27.0202C12.881 26.905 13.1382 26.7048 13.3229 26.4446C13.5077 26.1844 13.6118 25.8756 13.6225 25.5566C13.6523 24.067 13.9912 22.5998 14.6177 21.2479C12.1765 23.0774 12.4077 24.497 10.5812 25.3049C8.88932 26.0045 7.71555 23.8677 8.86884 23.2062C9.45426 22.9135 9.90796 22.9837 10.1773 23.4989C10.3909 24.0199 10.2124 24.4619 9.6855 24.6083C10.0025 24.5796 10.3043 24.4591 10.5538 24.2615C10.8034 24.064 10.9899 23.7979 11.0905 23.496C11.5373 22.0634 12.2792 20.7402 13.2683 19.6117C10.4085 20.8528 10.3412 22.3105 8.35366 22.6881C6.54471 22.9808 5.88025 20.6391 7.15355 20.2615C7.79751 20.1181 8.21609 20.2615 8.35952 20.8469C8.45318 21.4001 8.18096 21.7924 7.63359 21.8158C7.94835 21.8593 8.26896 21.8099 8.55602 21.6737C8.84308 21.5374 9.08407 21.3203 9.24936 21.0489C9.97841 19.7939 10.9531 18.6988 12.115 17.8291C9.18789 18.3267 8.71955 19.6644 6.7496 19.5297C4.92308 19.3629 4.87625 16.9246 6.20516 16.8748C6.86669 16.9012 7.22965 17.1675 7.22087 17.753C7.21209 18.3384 6.80815 18.6311 6.27248 18.5081C6.56585 18.63 6.88846 18.6633 7.20054 18.604C7.51262 18.5447 7.80052 18.3954 8.02875 18.1745C9.08191 17.1175 10.3427 16.2903 11.7316 15.745C8.72833 15.3849 7.9263 16.5675 6.04124 15.8884C4.33181 15.221 4.96114 12.8793 6.25199 13.1867C6.8784 13.3945 7.15647 13.7457 6.9867 14.3136C6.81693 14.8815 6.34566 15.0337 5.87732 14.7731C6.1255 14.9683 6.42517 15.0869 6.73967 15.1144C7.05418 15.142 7.3699 15.0773 7.64823 14.9283C9.01818 14.1657 10.5392 13.714 12.1033 13.6052C9.07959 12.2412 7.95265 13.2598 6.28127 12.0568C4.81771 10.9503 6.06466 8.85745 7.22087 9.51605C7.76824 9.89658 7.9263 10.3093 7.63359 10.8098C7.29405 11.2577 6.82278 11.3309 6.43055 10.9474C6.61529 11.2062 6.87165 11.4053 7.1681 11.5202C7.46454 11.6351 7.78812 11.6609 8.099 11.5943C9.68571 11.2246 11.3362 11.2246 12.9229 11.5943C10.3119 9.41653 8.94494 10.1307 7.63359 8.52083C6.50665 7.07191 8.25707 5.37711 9.20253 6.31379C9.63281 6.81432 9.69135 7.25632 9.25229 7.65733C8.80737 8.00273 8.33317 7.95004 8.0551 7.47585C8.16603 7.774 8.36177 8.03317 8.61818 8.22145C8.87459 8.40973 9.18048 8.51889 9.49817 8.53547C11.0735 8.58766 12.6178 8.98748 14.0206 9.70631C12.0857 7.13923 10.631 7.44658 9.77331 5.60835C9.03861 3.92526 11.152 2.71344 11.8223 3.85208C12.115 4.43751 12.0652 4.88828 11.5296 5.16636C11.0144 5.39175 10.5666 5.22197 10.4114 4.69802C10.4461 5.01416 10.5723 5.3133 10.7746 5.55873C10.9769 5.80415 11.2464 5.98519 11.5501 6.07962C13.0737 6.51753 14.4806 7.28948 15.6685 8.33935C14.404 5.29515 12.9024 5.26881 12.4955 3.25202C12.1765 1.44892 14.5152 0.763977 14.9133 2.03142C15.0626 2.67538 14.9133 3.09396 14.3279 3.24324C13.7718 3.34277 13.3795 3.07347 13.3502 2.5261C13.3093 2.84142 13.3615 3.16183 13.5004 3.44787C13.6393 3.73391 13.8587 3.97311 14.1318 4.13601C15.4153 4.86275 16.5353 5.84623 17.4219 7.02508C17.0911 4.00722 15.7593 3.48034 15.9964 1.50161C16.2569 -0.313201 18.6922 -0.231242 18.6747 1.09767C18.6161 1.75627 18.3351 2.1046 17.7438 2.06654C17.1526 2.02849 16.8979 1.60699 17.0413 1.08011C16.9043 1.36878 16.8551 1.69136 16.8998 2.00777C16.9446 2.32418 17.0813 2.62046 17.2931 2.85979C18.3009 3.9797 19.0619 5.29914 19.5265 6.73236C20.1441 3.67353 18.9908 2.77783 19.8192 0.939604C19.9367 0.660972 20.1338 0.4232 20.3858 0.256062C20.6378 0.0889254 20.9335 -0.000146815 21.2359 1.81648e-07C22.0204 1.81648e-07 22.7346 0.585423 22.4887 1.34355C22.2399 1.95239 21.8682 2.20412 21.3179 1.99337C20.7676 1.78261 20.6446 1.30549 20.9373 0.843009C20.7232 1.07567 20.5815 1.36567 20.5295 1.67757C20.4775 1.98946 20.5175 2.30975 20.6446 2.59928C21.2796 3.96397 21.6207 5.4469 21.6457 6.9519L21.6428 6.96068ZM21.5637 22.5944C21.915 22.5154 22.2692 22.4393 22.6116 22.3544C24.4487 21.7943 26.0062 20.5604 26.9715 18.9001C27.9369 17.2397 28.2389 15.2758 27.8168 13.4022C27.3947 11.5286 26.2799 9.88379 24.6959 8.79776C23.1118 7.71172 21.1758 7.26475 19.276 7.54648C17.3762 7.82821 15.6531 8.81781 14.4524 10.3168C13.2517 11.8158 12.6622 13.7133 12.802 15.6288C12.9419 17.5443 13.8008 19.336 15.2064 20.6448C16.6121 21.9535 18.4606 22.6823 20.3812 22.6851C20.7732 22.684 21.1645 22.6536 21.552 22.5944H21.5637Z" fill="#28559A"/>
<path fill-rule="evenodd" clip-rule="evenodd" d="M14.1053 10.5113C14.3395 10.8567 14.3629 11.0704 14.398 11.5973C14.4094 11.9548 14.5558 12.2947 14.8078 12.5486C13.8916 12.5486 13.637 13.4004 12.8203 13.4414C13.0015 13.5452 13.1606 13.6834 13.2887 13.8482C13.4145 14.0268 13.4965 14.2083 13.6165 14.3956C13.7242 14.5876 13.8738 14.7529 14.0542 14.8791C14.2346 15.0053 14.4412 15.0892 14.6585 15.1245C14.4391 15.1438 14.2296 15.2247 14.0541 15.3577C13.8786 15.4908 13.7441 15.6707 13.6662 15.8767C13.476 16.2543 13.3091 16.6553 12.914 16.8544C13.2755 16.8864 13.6177 17.0319 13.8916 17.27C14.1725 17.5287 14.5433 17.6673 14.9249 17.6564C14.7976 17.7906 14.6989 17.9494 14.635 18.123C14.5711 18.2967 14.5432 18.4815 14.5532 18.6663C14.5969 19.0557 14.5004 19.448 14.2809 19.7727C15.0332 19.5327 15.8411 20.083 16.5729 19.6966C16.5461 19.8426 16.5295 19.9903 16.5231 20.1386C16.5231 20.7065 17.0529 21.1894 16.8773 21.7895C17.012 21.651 17.1805 21.5501 17.3661 21.4968C17.5701 21.4411 17.7774 21.3981 17.9867 21.368C18.1922 21.3464 18.3913 21.2836 18.5721 21.1836C18.6541 21.1391 18.7299 21.084 18.7975 21.0197C18.8615 20.9533 18.9176 20.8796 18.9643 20.8001C18.9679 20.9791 19.0261 21.1528 19.1312 21.2977C19.1772 21.3676 19.228 21.4341 19.2834 21.4968C19.4054 21.61 19.5334 21.7165 19.6668 21.8158C19.9612 21.9944 20.1886 22.2649 20.3137 22.5857C20.3371 22.293 20.7733 21.9154 20.9811 21.7602C21.1324 21.6683 21.2703 21.556 21.3909 21.4265C21.566 21.2396 21.6615 20.9918 21.6573 20.7357C21.7092 20.8174 21.7701 20.893 21.8388 20.9611C21.9091 21.0239 21.9867 21.078 22.07 21.1221C22.2538 21.2128 22.4518 21.2712 22.6554 21.2948C22.8773 21.3167 23.0968 21.3589 23.3111 21.4207C23.4031 21.4553 23.4931 21.4954 23.5804 21.5407C23.6525 21.5904 23.7209 21.6452 23.7853 21.7046C23.7853 21.5934 23.7472 21.5963 23.7472 21.4909V21.4324C23.7472 20.8265 24.119 20.5074 24.119 19.9688C24.1159 19.8438 24.0962 19.7198 24.0604 19.6C24.2261 19.6964 24.4133 19.7497 24.6049 19.7551H24.7424C25.3279 19.7551 25.7435 19.4449 26.3407 19.6234C25.9309 19.0702 26.2002 18.4145 25.8928 17.8672C25.7977 17.7012 25.6715 17.5551 25.5211 17.4369L25.7728 17.4603C26.4812 17.5335 26.9934 16.4739 27.7047 16.4739C27.3747 16.2602 27.1023 15.9687 26.9114 15.625C26.6743 15.2708 26.4255 14.9313 25.9601 14.9049C26.1733 14.8629 26.3701 14.7614 26.528 14.6122C26.666 14.4737 26.7834 14.3159 26.8763 14.1439C27.0929 13.7897 27.2305 13.4238 27.6491 13.2657C26.8383 13.2657 26.2909 12.0949 25.404 12.3876C25.4859 12.2617 25.6323 12.1856 25.7406 11.9837C25.8315 11.7938 25.8766 11.5853 25.8723 11.3748C25.85 11.148 25.85 10.9196 25.8723 10.6928C25.9213 10.5034 25.9973 10.3221 26.0977 10.1542C25.5123 10.3679 25.0644 10.1103 24.4849 10.0781C24.2565 10.0878 24.0342 10.1542 23.838 10.2713L23.8848 10.0196V9.90541C23.8848 9.42829 23.4399 8.93653 23.4399 8.52381V8.40965L23.4633 8.19597C23.315 8.31618 23.1504 8.41474 22.9745 8.48868C22.7498 8.55597 22.521 8.60877 22.2895 8.64675C22.009 8.68229 21.7479 8.80875 21.546 9.00678C21.4992 9.05947 21.4143 9.18534 21.3763 9.22632C21.3763 8.7492 20.9957 8.46234 20.7177 8.25159C20.5554 8.1449 20.4026 8.02445 20.261 7.89155C20.1205 7.76289 20.0148 7.60078 19.9537 7.42029C19.86 8.1345 18.7067 8.34818 18.7067 9.26437C18.6775 9.24388 18.5809 9.10923 18.5253 9.05655C17.9925 8.5443 17.0354 8.9219 16.5641 8.3716C16.7104 8.67895 16.2714 9.50439 16.2714 10.1279C16.2727 10.248 16.2986 10.3665 16.3475 10.4762C16.2066 10.3918 16.0463 10.3454 15.8821 10.3415C15.2732 10.3415 14.7112 10.6108 14.0878 10.5347L14.1053 10.5113ZM18.8999 9.17363C18.8999 8.58821 19.8512 8.18426 19.983 7.87984C20.1838 8.09751 20.4144 8.28573 20.6679 8.43892C20.8221 8.51465 20.954 8.62924 21.0505 8.77141C21.147 8.91359 21.2048 9.07844 21.2182 9.24973C21.2092 9.43481 21.1757 9.61789 21.1187 9.79418C20.4689 9.65953 20.1966 9.65953 20.0678 8.89848C19.98 9.64489 19.7137 9.71807 19.0551 9.87028C18.9601 9.64984 18.9075 9.41352 18.8999 9.17363V9.17363ZM21.4114 9.87028C21.4037 9.66704 21.457 9.46615 21.5645 9.29348C21.6719 9.1208 21.8286 8.98425 22.0144 8.90141C22.2309 8.84175 22.4523 8.80159 22.6759 8.7814C22.7374 8.7814 22.9247 8.72285 22.9686 8.70529C23.0125 8.68773 23.1238 8.64675 23.2613 8.59113C23.2613 9.12387 23.7238 9.46927 23.7238 9.93175C23.7086 10.0916 23.6597 10.2465 23.5805 10.3862C23.5014 10.5259 23.3936 10.6473 23.2643 10.7426C22.7023 10.4499 22.5822 10.0927 22.7959 9.48976C22.3422 10.1191 22.0612 10.0225 21.4114 9.87028ZM16.7719 8.69944C17.3105 8.90141 18.2355 8.76969 18.5692 9.33462C18.6627 9.51533 18.7259 9.71012 18.7565 9.91126C18.2355 10.0283 17.9457 10.2625 17.41 9.65075C17.5886 10.2362 17.5447 10.4938 16.9446 10.9299C16.0401 9.95224 16.687 9.49561 16.7661 8.71115L16.7719 8.69944ZM23.5043 10.9065C23.5854 10.7161 23.719 10.5528 23.8896 10.4356C24.0601 10.3185 24.2605 10.2523 24.4673 10.245C24.8859 10.245 25.4976 10.5084 25.7377 10.4352C25.6725 10.575 25.6452 10.7294 25.6586 10.8831C25.6586 11.328 25.7464 11.6675 25.5416 11.969C25.337 12.1916 25.0745 12.3527 24.7834 12.4344C24.6078 11.928 24.3385 11.849 24.9181 11.0967C24.2448 11.53 24.0838 11.287 23.516 10.9211L23.5043 10.9065ZM15.8938 10.4791C16.2158 10.4791 16.6021 10.8714 16.7134 11.0821C16.368 11.4392 16.0782 11.7612 15.2908 11.328C15.7533 11.7993 15.8089 12.1037 15.563 12.6715C15.3632 12.6174 15.1676 12.5489 14.9776 12.4666C14.8168 12.3723 14.696 12.2224 14.6381 12.0451C14.4858 11.6705 14.5239 11.1172 14.4127 10.6987C14.9103 10.6987 15.3757 10.4791 15.8762 10.4791H15.8938ZM24.9591 12.7623C25.1864 12.6151 25.4471 12.5275 25.7172 12.5076C26.3026 12.5076 26.7534 13.2657 27.1807 13.3009C26.9801 13.5666 26.8019 13.8486 26.648 14.1439C26.5859 14.2984 26.4843 14.4338 26.3532 14.5366C26.2222 14.6394 26.0664 14.7058 25.9016 14.7293H25.4069C25.3689 14.097 25.5298 13.8102 26.165 13.5584C25.4274 13.6404 25.1932 13.4472 24.9591 12.7828V12.7623ZM13.3062 13.538C13.7892 13.5028 14.12 12.7213 14.7493 12.7213C15.0082 12.7751 15.2577 12.8668 15.4898 12.9935C15.4547 13.6111 14.7317 13.8716 14.2019 13.8424C14.7873 14.1351 15.0625 14.2873 15.1064 14.9137L14.6117 14.9283C13.8829 14.9283 13.7336 13.9565 13.3062 13.5321V13.538ZM18.0423 14.8552C18.0423 13.7955 19.0053 12.7798 20.0474 12.7798H20.302C20.8372 12.8054 21.3436 13.0295 21.7225 13.4084C22.1013 13.7872 22.3254 14.2936 22.351 14.8288V15.0425C22.3175 15.5649 22.0954 16.0573 21.7261 16.4283C21.3567 16.7992 20.8652 17.0235 20.343 17.0593H20.0913C19.8153 17.0533 19.5435 16.9916 19.292 16.8779C19.0405 16.7642 18.8145 16.6009 18.6277 16.3977C18.4555 16.2044 18.3116 15.9876 18.2003 15.7538C18.0851 15.4758 18.0302 15.1765 18.0394 14.8756L18.0423 14.8552ZM25.404 15.0513C25.6463 14.9936 25.9008 15.0147 26.1303 15.1116C26.3598 15.2085 26.5524 15.376 26.6802 15.5899C26.851 15.8732 27.0533 16.1364 27.2832 16.3743C26.6626 16.5207 26.4372 17.2525 25.6996 17.2525C25.4719 17.2291 25.2521 17.1561 25.0556 17.0388C25.3484 16.4036 25.5211 16.266 26.285 16.2455C25.4889 16.0904 25.4069 15.7245 25.4069 15.0425L25.404 15.0513ZM13.3794 16.7197C13.585 16.4679 13.7517 16.1867 13.8741 15.8855C13.9336 15.731 14.0334 15.5952 14.1631 15.4923C14.2928 15.3893 14.4477 15.323 14.6117 15.3001H15.1005C15.1005 16.0377 14.9952 16.2133 14.2634 16.5997C14.9395 16.5382 15.2937 16.6202 15.5689 17.2203C15.3408 17.347 15.0979 17.4453 14.8459 17.513C14.2605 17.513 13.9092 16.8427 13.3823 16.7197H13.3794ZM24.9034 17.3549C25.0352 17.4193 25.3367 17.5335 25.4303 17.5949C25.5924 17.6855 25.7169 17.8308 25.7816 18.0047C25.8563 18.2314 25.8939 18.4686 25.8928 18.7072C25.8844 18.9198 25.9152 19.1322 25.9835 19.3336C25.5035 19.3336 25.0791 19.5385 24.5932 19.5385C24.1717 19.5385 23.9024 19.2019 23.715 18.9531C24.2595 18.5667 24.4614 18.4731 25.1171 18.8038C24.5551 18.1189 24.7776 18.0428 24.9386 17.3578L24.9034 17.3549ZM14.6907 19.5093C14.7578 19.2775 14.7846 19.0359 14.7698 18.7951C14.7492 18.5678 14.77 18.3387 14.8312 18.1189C14.922 17.8262 15.3523 17.5715 15.683 17.4954C15.9582 18.1862 16.0489 18.3736 15.525 19.0087C16.1543 18.6955 16.3621 18.6838 16.9036 19.0585C16.8154 19.2157 16.7016 19.3572 16.567 19.4771C16.0987 19.84 15.3962 19.5532 14.6907 19.5093ZM23.4955 19.1346C23.5804 19.2312 23.9463 19.6556 23.9463 19.8986C23.9463 20.405 23.5365 20.7767 23.5365 21.2773C23.112 21.0753 22.6935 21.1631 22.2954 21.0197C22.1148 20.971 21.9578 20.8588 21.8534 20.7035C21.7432 20.5164 21.6669 20.3113 21.628 20.0976C22.272 19.9132 22.6408 19.84 23.0916 20.5162C22.752 19.7844 22.8984 19.5503 23.4896 19.1346H23.4955ZM18.9936 20.1532C18.9233 20.5777 18.7887 20.9553 18.3409 21.1104C17.9837 21.2451 17.5652 21.2333 17.1173 21.4031C17.0763 20.9436 16.6987 20.525 16.6987 20.1123C16.7123 19.939 16.7604 19.7701 16.8404 19.6158C16.9203 19.4614 17.0304 19.3247 17.1642 19.2136C17.5271 19.4244 17.9311 19.7376 17.6061 20.6391C18.0891 20.0537 18.2735 19.96 18.9936 20.1532V20.1532ZM21.3529 20.1679C21.4194 20.3826 21.4588 20.6049 21.4699 20.8294C21.4699 21.4324 20.4279 21.731 20.3225 22.129C20.2025 21.7427 19.1517 21.447 19.1517 20.8118C19.173 20.6022 19.2191 20.3959 19.2892 20.1971C20.0093 20.3786 20.1849 20.4899 20.3693 21.2685C20.504 20.4899 20.6621 20.364 21.3529 20.1737V20.1679Z" fill="#28559A"/>
</svg>
